<?xml version="1.0" encoding="utf-8"?>
<!-- Generator: Adobe Illustrator 24.1.0, SVG Export Plug-In . SVG Version: 6.00 Build 0)  -->
<svg version="1.1" id="Laag_1" xmlns="http://www.w3.org/2000/svg" xmlns:xlink="http://www.w3.org/1999/xlink" x="0px" y="0px"
	 viewBox="0 0 512 512" style="enable-background:new 0 0 512 512;" xml:space="preserve">
<path id="Outline" d="M488,128c-4.4,0-8,3.6-8,8v288h-43.4c-51.5,0-102.8,5.9-153,17.4c-6.4,1.5-13.1-1.2-16.8-6.7
	c28.6-17.5,61.4-26.7,94.9-26.8H456c4.4,0,8-3.6,8-8v-56c0-4.4-3.6-8-8-8s-8,3.6-8,8v48h-86.3c-34.2,0-67.9,8.8-97.7,25.7V200
	c0-4.4-3.6-8-8-8s-8,3.6-8,8v217.7c-29.8-16.9-63.5-25.7-97.7-25.7H64V104h123.2c33.6,0,60.8,27.3,60.8,60.8c0,4.4,3.6,8,8,8
	s8-3.6,8-8c0-33.6,27.2-60.8,60.8-60.8H448v208c0,4.4,3.6,8,8,8s8-3.6,8-8V96c0-4.4-3.6-8-8-8H324.8c-29.2,0-55.8,16.5-68.8,42.7
	C243,104.5,216.4,88,187.2,88H56c-4.4,0-8,3.6-8,8v304c0,4.4,3.6,8,8,8h94.3c33.5,0,66.3,9.3,94.9,26.8c-3.7,5.5-10.4,8.1-16.8,6.7
	c-50.2-11.6-101.5-17.4-153-17.4H32V136c0-4.4-3.6-8-8-8s-8,3.6-8,8v296c0,4.4,3.6,8,8,8h51.4c50.3,0,100.4,5.7,149.4,17
	c11.5,2.6,23.5-1.3,31.2-10.1c7.7,8.9,19.7,12.8,31.2,10.1c49-11.3,99.1-17,149.4-17H488c4.4,0,8-3.6,8-8V136
	C496,131.6,492.4,128,488,128z M229.8,156.9c-12.6-8.4-27.4-12.9-42.6-12.9H96c-4.4,0-8,3.6-8,8s3.6,8,8,8h91.2
	c12,0,23.8,3.5,33.7,10.2c3.7,2.5,8.6,1.5,11.1-2.2C234.5,164.3,233.5,159.4,229.8,156.9L229.8,156.9z M416,144h-91.2
	c-15.2,0-30,4.5-42.6,12.9c-3.7,2.5-4.7,7.4-2.2,11.1c2.5,3.7,7.4,4.7,11.1,2.2c10-6.7,21.7-10.2,33.7-10.2H416c4.4,0,8-3.6,8-8
	S420.4,144,416,144z M229.8,196.9c-12.6-8.4-27.4-12.9-42.6-12.9H96c-4.4,0-8,3.6-8,8s3.6,8,8,8h91.2c12,0,23.8,3.5,33.7,10.2
	c3.7,2.5,8.6,1.5,11.1-2.2C234.5,204.3,233.5,199.4,229.8,196.9L229.8,196.9z M416,184h-91.2c-15.2,0-30,4.5-42.6,12.9
	c-3.7,2.5-4.7,7.4-2.2,11.1c2.5,3.7,7.4,4.7,11.1,2.2l0,0c10-6.7,21.7-10.2,33.7-10.2H416c4.4,0,8-3.6,8-8S420.4,184,416,184z
	 M229.8,236.9c-12.6-8.4-27.4-12.9-42.6-12.9H96c-4.4,0-8,3.6-8,8s3.6,8,8,8h91.2c12,0,23.8,3.5,33.7,10.2c3.7,2.5,8.6,1.5,11.1-2.2
	C234.5,244.3,233.5,239.4,229.8,236.9L229.8,236.9L229.8,236.9z M416,224h-91.2c-15.2,0-30,4.5-42.6,12.9c-3.7,2.5-4.7,7.4-2.2,11.1
	c2.5,3.7,7.4,4.7,11.1,2.2l0,0c10-6.7,21.7-10.2,33.7-10.2H416c4.4,0,8-3.6,8-8S420.4,224,416,224z M229.8,276.9
	c-12.6-8.4-27.4-12.9-42.6-12.9H96c-4.4,0-8,3.6-8,8s3.6,8,8,8h91.2c12,0,23.8,3.5,33.7,10.2c3.7,2.5,8.6,1.5,11.1-2.2
	S233.5,279.4,229.8,276.9L229.8,276.9z M416,264h-91.2c-15.2,0-30,4.5-42.6,12.9c-3.7,2.5-4.7,7.4-2.2,11.1s7.4,4.7,11.1,2.2
	c10-6.7,21.7-10.2,33.7-10.2H416c4.4,0,8-3.6,8-8S420.4,264,416,264z M229.8,316.9c-12.6-8.4-27.4-12.9-42.6-12.9H96
	c-4.4,0-8,3.6-8,8s3.6,8,8,8h91.2c12,0,23.8,3.5,33.7,10.2c3.7,2.5,8.6,1.5,11.1-2.2S233.5,319.4,229.8,316.9L229.8,316.9
	L229.8,316.9z M416,304h-91.2c-15.2,0-30,4.5-42.6,12.9c-3.7,2.5-4.7,7.4-2.2,11.1s7.4,4.7,11.1,2.2c10-6.7,21.7-10.2,33.7-10.2H416
	c4.4,0,8-3.6,8-8S420.4,304,416,304z M187.2,344H96c-4.4,0-8,3.6-8,8s3.6,8,8,8h91.2c12,0,23.8,3.5,33.7,10.2
	c3.7,2.5,8.6,1.5,11.1-2.2s1.5-8.6-2.2-11.1l0,0C217.2,348.5,202.4,344,187.2,344z M416,344h-91.2c-15.2,0-30,4.5-42.6,12.9
	c-3.7,2.5-4.7,7.4-2.2,11.1s7.4,4.7,11.1,2.2l0,0c10-6.7,21.7-10.2,33.7-10.2H416c4.4,0,8-3.6,8-8S420.4,344,416,344z"/>
</svg>
