<?xml version="1.0" encoding="iso-8859-1"?>
<!-- Generator: Adobe Illustrator 19.0.0, SVG Export Plug-In . SVG Version: 6.00 Build 0)  -->
<svg version="1.1" id="Layer_1" xmlns="http://www.w3.org/2000/svg" xmlns:xlink="http://www.w3.org/1999/xlink" x="0px" y="0px"
	 viewBox="0 0 512.003 512.003" style="enable-background:new 0 0 512.003 512.003;" xml:space="preserve">
<g>
	<g>
		<path d="M417.804,129.113l-128-64c-2.645-1.323-5.717-1.472-8.512-0.448l-156.715,58.773
			c-11.243,4.224-20.843,12.224-27.008,22.507l-44.288,73.813c-9.429,15.723-10.176,34.901-1.963,51.285l42.859,85.717
			c0.875,1.749,2.155,3.157,3.669,4.139c-0.555,10.56,2.325,21.013,8.341,30.037c9.536,14.357,25.259,22.165,41.344,22.165
			c8.704,0,17.536-2.304,25.579-7.125l73.301-43.968c11.477-2.795,68.501-19.861,111.701-89.749
			c45.461-73.515,64.235-127.872,65.024-130.155C424.865,137.049,422.583,131.502,417.804,129.113z M339.937,261.081
			c-42.069,68.053-99.115,80.363-99.669,80.469c-1.195,0.256-2.368,0.704-3.413,1.323l-74.752,44.843
			c-12.992,7.829-29.781,4.053-38.229-8.619c-4.267-6.421-5.739-14.101-4.16-21.632c1.6-7.509,6.037-13.931,12.523-18.048
			c57.323-36.501,67.669-40.512,67.456-40.747c5.888,0,10.624-4.267,10.645-10.155c1.088-6.677,20.523-37.909,39.573-56.96
			c3.051-3.051,3.968-7.637,2.304-11.627c-1.643-3.989-5.547-6.592-9.856-6.592c-33.173,0-57.067-18.795-57.301-18.987
			c-2.155-1.707-4.779-2.795-7.403-2.795c-1.301,0-2.581,0.277-3.797,0.875c-3.712,1.771-5.973,4.843-5.973,8.939
			c-3.755,9.152-44.715,32.299-53.525,33.301c-4.395,0-8.299,2.688-9.899,6.784c-1.6,4.096-0.533,8.747,2.688,11.733
			c0.171,0.149,17.899,16.789,17.899,34.816c0,5.888,4.544,10.645,10.432,10.645c1.813,0.448,5.077,4.011,8.043,8.448
			c-6.699,4.16-14.229,8.917-22.72,14.315c-5.525,3.52-10.219,7.979-13.888,13.163l-36.523-73.067
			c-4.928-9.835-4.501-21.333,1.173-30.763l44.288-73.813c3.712-6.187,9.472-10.965,16.213-13.504l152.32-57.109l115.264,57.621
			C392.609,161.966,373.772,206.361,339.937,261.081z M145.676,279.875c-1.92-11.648-7.595-21.931-12.971-29.461
			c16.32-6.997,38.144-19.669,49.216-32.576c8.512,4.992,21.909,11.413,38.656,14.699c-12.459,15.424-25.173,34.496-29.76,47.232
			c-5.248,2.347-13.909,6.997-29.077,16.128C158.028,290.094,152.566,283.438,145.676,279.875z"/>
	</g>
</g>
<g>
	<g>
		<path d="M135.692,394.67c-5.888,0-10.667,4.779-10.667,10.667v53.333c0,5.888,4.779,10.667,10.667,10.667
			s10.667-4.779,10.667-10.667v-53.333C146.358,399.449,141.58,394.67,135.692,394.67z"/>
	</g>
</g>
<g>
	<g>
		<path d="M459.873,64.857l-149.333-64c-4.373-1.877-9.515-0.597-12.523,3.136L255.35,57.326c-2.027,2.517-2.795,5.803-2.091,8.96
			c0.704,3.157,2.773,5.824,5.653,7.253l161.131,80.555c4.523,2.261,9.323,3.413,14.293,3.413c8.213,0,16.341-3.285,22.272-9.024
			c6.293-6.059,9.749-14.208,9.749-22.997V74.67C466.359,70.403,463.82,66.542,459.873,64.857z M445.025,125.486
			c0,3.755-1.749,6.229-3.2,7.637c-3.221,3.072-8.128,3.968-12.224,1.899L280.268,60.355l29.355-36.693l135.403,58.027V125.486z"/>
	</g>
</g>
<g>
	<g>
		<path d="M185.889,382.339c-3.499-3.2-8.661-3.733-12.672-1.28l-11.093,6.635c-12.651,7.573-30.08,3.605-38.229-8.64
			c-1.067-1.6-1.92-3.264-2.624-4.971c-2.24-5.419-8.469-8-13.909-5.781c-28.139,11.563-46.336,38.677-46.336,69.035
			c0,41.173,33.493,74.667,74.667,74.667s74.667-33.493,74.688-74.667C210.38,416.579,201.441,396.547,185.889,382.339z
			 M135.692,490.649c-29.397,0-53.333-23.936-53.333-53.333c0-18.517,9.472-35.328,24.768-44.992
			c14.507,20.267,44.395,26.603,65.963,13.653l3.776-2.261c7.893,9.515,12.16,21.184,12.16,33.6
			C189.025,466.713,165.089,490.649,135.692,490.649z"/>
	</g>
</g>
<g>
</g>
<g>
</g>
<g>
</g>
<g>
</g>
<g>
</g>
<g>
</g>
<g>
</g>
<g>
</g>
<g>
</g>
<g>
</g>
<g>
</g>
<g>
</g>
<g>
</g>
<g>
</g>
<g>
</g>
</svg>
