<?xml version="1.0" encoding="utf-8"?>
<!-- Generator: Adobe Illustrator 24.1.0, SVG Export Plug-In . SVG Version: 6.00 Build 0)  -->
<svg version="1.1" id="Laag_1" xmlns="http://www.w3.org/2000/svg" xmlns:xlink="http://www.w3.org/1999/xlink" x="0px" y="0px"
	 viewBox="0 0 512 512" style="enable-background:new 0 0 512 512;" xml:space="preserve">
<path id="Page-1" d="M470.6,268.4c-1.5-8-8.6-13.8-16.8-13.8h-16.5l-1.2-7.3c-1.2-7.3-7-13-14.3-14.1c-1.6-0.3-3.3-0.4-4.9-0.6
	c2.8-13,0.5-26.7-6.5-38.1c3.7-9.5,3-20.2-1.9-29.2c-4.9-9-13.4-15.4-23.4-17.5c-6.4-34.2-36.1-59.1-70.9-59.3
	c-0.9,0-1.6,0.1-2.4,0.1c-5.6-8.7-14.7-14.5-25-15.8c-10.3-1.3-20.6,2.1-28.1,9.2c-9.5-6.2-20.6-9.5-31.9-9.5
	c-18.2,0.1-35.4,8.5-46.6,22.9c-12.4-3.6-25.8-1.4-36.3,6c-10.6,7.4-17.2,19.3-18,32.2c-13,5.5-21.5,18.2-21.5,32.4
	c0,2.4,0.3,4.9,0.9,7.3c-11.5,17.4-14.5,39-8.2,58.9c-2.3,0.3-4.6,0.6-6.8,0.9c-7.3,1.1-13.1,6.8-14.4,14.1l-1.2,7.3H58.2
	c-8.2,0-15.2,5.8-16.7,13.8L4.1,460.2c-1.5,7.5,0.5,15.3,5.4,21.2s12.1,9.3,19.8,9.3h178c7.1,11.7,28.5,17.1,48.8,17.1
	c20,0,41.3-5.3,48.6-17.1h178.2c7.7,0,14.9-3.4,19.8-9.3s6.9-13.7,5.4-21.2L470.6,268.4z M130.3,181.5c-6.9-4.2-10.2-12.4-8.1-20.2
	c2.1-7.8,9.2-13.2,17.3-13.2c5.7,0,11,2.7,14.3,7.2c1.8,2.4,4.8,3.7,7.8,3.4s5.6-2.3,6.9-5.1c1.2-2.8,0.8-6-1-8.5
	c-5.8-7.7-14.6-12.7-24.2-13.7c2.5-12,13.1-20.5,25.3-20.5c1,0.1,2.1,0.2,3.1,0.3c-0.7,1.7-1.3,3.5-1.8,5.3
	c-1.1,4.5,1.7,9.1,6.2,10.2c4.5,1.2,9.1-1.5,10.3-5.9c1-3.8,2.5-7.3,4.4-10.7c7.6-12.7,21.2-20.5,36-20.5c8,0,15.9,2.4,22.6,6.8
	c-1.3,3.6-2,7.4-2,11.2c0,4.7,3.8,8.5,8.5,8.5c4.7,0,8.5-3.8,8.5-8.5c0-9.9,8-17.9,17.9-17.9s17.9,8,17.9,17.9
	c0,4.7,3.8,8.5,8.5,8.5s8.5-3.8,8.5-8.5c0-0.7-0.2-1.3-0.2-1.9c24.4,1.5,45,18.9,50.5,42.7c-4,1.2-7.7,3-11,5.5
	c-2.4,1.8-3.7,4.8-3.4,7.8c0.4,3,2.3,5.6,5.1,6.8c2.8,1.2,6,0.8,8.5-1c6.8-5,16.2-4.6,22.6,1c6.4,5.6,7.9,14.9,3.8,22.3
	c-1.9,3.3-4.7,5.9-8.1,7.5c-3.6,1.7-5.5,5.7-4.6,9.5c0.9,3.9,4.3,6.6,8.2,6.7c1.3,0,2.5-0.3,3.6-0.8c2.3-1.1,4.4-2.4,6.4-4
	c4.4,12.5,1.6,26.5-7.2,36.4l-0.2,0.2c-11.1,12-28.9,15.3-43.5,8c-1.4-0.8-2.8-1.6-4.1-2.6c6.3-8.8,7.2-20.4,2.3-30
	c-1.4-2.7-4.1-4.5-7.1-4.7s-6,1.3-7.6,3.8c-1.7,2.6-1.9,5.8-0.5,8.5c2.8,5.6,1.1,12.5-4.1,16.1c-3,2-6.8,2.7-10.3,1.8
	c-3.5-0.9-6.5-3.3-8.2-6.5c-1.4-2.7-4.1-4.5-7.1-4.7c-3-0.2-6,1.3-7.6,3.8c-1.7,2.5-1.9,5.8-0.5,8.5c5,10.1,15.3,16.5,26.6,16.5
	c3.7,0,7.3-0.7,10.7-2.1c3,2.7,6.4,5,10,6.8c12.2,6.3,26.3,7.6,39.4,3.6c-8.4,11.5-21.1,19.3-35.1,21.5c-4.4,0.7-7.5,4.7-7.1,9.1
	c0.3,4.4,4,7.8,8.5,7.9c0.5,0,0.9,0,1.4-0.1c5.2-0.9,10.3-2.4,15.1-4.4c2.6,4.6,4.8,9.6,6.4,14.7c0.3,0.9,0.4,1.8,0.4,2.8
	c0,3.7-2.2,7-5.6,8.5c-3.9,1.5-8.4,0.3-11-3c-6.6-7.8-15.3-13.5-25-16.6c-18.4-6.2-25.6-11.7-28.6-17.7c4.4-0.6,8.8-1.5,13.1-2.7
	c2.9-0.9,5.1-3.3,5.8-6.3c0.7-3-0.3-6.1-2.5-8.2c-2.2-2.1-5.4-2.8-8.3-1.9c-4.8,1.5-9.7,2.4-14.7,2.7c-9.6,0.8-19.3-0.7-28.3-4.3
	c-3.4-1.3-7.2-0.4-9.6,2.4c-12.4,14.3-33.7,16.7-49,5.6c-15.3-11.1-19.6-32.1-9.9-48.3c1.6-2.6,1.6-5.9,0.1-8.6
	c-1.5-2.7-4.3-4.3-7.3-4.4c-3.1,0-5.9,1.5-7.5,4.2c-2,3.5-3.7,7.1-4.9,11c-6.7-0.4-12-5.8-12.1-12.6v-0.2c0-2.3-0.9-4.4-2.5-6
	s-3.8-2.5-6-2.4c-4.7,0-8.5,3.9-8.5,8.6c0,15.1,11.5,27.8,26.5,29.4c0,2.9,0.3,5.7,0.8,8.5c-19.1,4.1-38.8-2.7-51.2-17.8
	s-15.4-35.7-7.8-53.7c1.9,1.9,4,3.6,6.3,5.1c4,2.4,9.2,1,11.6-3C135.5,189.1,134.2,183.9,130.3,181.5L130.3,181.5z M92.7,250
	c3.9-0.6,8-1.1,12-1.6c15.8,25.2,46,37.5,74.8,30.4c7.8,14.7,21.9,25,38.4,27.8c16.4,2.8,33.2-2.2,45.4-13.6
	c5.8,1.7,11.8,2.8,17.8,3.2c4.1,15.6,16,25.1,41.1,33.5c6.7,2.1,12.8,6.1,17.4,11.4c5.1,6.1,12.7,9.6,20.6,9.7
	c3.5,0,6.9-0.7,10.1-2.1c9.7-4.1,15.9-13.6,15.9-24.2c0-2.7-0.4-5.5-1.3-8.1c-1.9-6-4.4-11.8-7.5-17.4
	c14.5-10.4,24.6-25.9,28.4-43.4c1.8-2.2,3.5-4.5,4.9-6.9c2.9,0.4,5.7,0.7,8.6,1.2l30.8,185.3c-60.2-20.1-125.3-20.1-185.5,0V328.5
	c0-4.7-3.8-8.5-8.5-8.5c-4.7,0-8.5,3.8-8.5,8.5v106.9c-60.2-20.1-125.3-20.1-185.5-0.1L92.7,250z M22.6,470.5
	c-1.6-1.9-2.3-4.5-1.8-7l37.4-191.8h13.7L45.1,432.5c-0.9,5.9,1.2,11.8,5.7,15.7c4.5,3.9,10.7,5.2,16.3,3.4
	c45.5-14.7,94-17.8,140.9-8.9l-2.5,30.9H29.3C26.7,473.6,24.3,472.4,22.6,470.5z M256,490.7c-20.6,0-32.3-6.1-34.1-8.8l2.9-35.4
	c9.4,2.3,18.6,5.4,27.5,9.2c1.2,0.6,2.4,0.8,3.7,0.9c1.3,0,2.5-0.3,3.7-0.9c8.9-3.8,18.1-6.9,27.5-9.3l2.9,35.5
	C288.3,484.6,276.6,490.7,256,490.7L256,490.7z M489.4,470.5c-1.6,2-4.1,3.1-6.6,3.1H306.5l-2.6-31c47-8.9,95.5-5.8,141,9
	c5.7,1.7,11.8,0.4,16.3-3.4c4.5-3.9,6.6-9.8,5.7-15.7l-26.8-160.9h13.7l37.4,191.8C491.7,465.9,491,468.5,489.4,470.5L489.4,470.5z
	 M227.7,197.8c-3.5,3.2-3.8,8.6-0.6,12c7.2,8,16.8,13.5,27.3,15.8c-4.8,6.7-12.5,10.7-20.8,10.7c-4.7,0-8.5,3.8-8.5,8.5
	s3.8,8.5,8.5,8.5c17.7,0.1,33.5-10.8,39.8-27.4c21.2-3.5,38-19.8,42.1-41c0.6-3-0.4-6.1-2.7-8.2c-2.3-2-5.6-2.7-8.5-1.6
	c-2.9,1-5,3.6-5.6,6.6c-1.7,8.8-6.8,16.6-14.1,21.7c-14.2,9.6-33.2,7.4-44.9-5.1C236.6,195,231.2,194.7,227.7,197.8L227.7,197.8z
	 M198,188.6c4.7,0,8.5-3.8,8.5-8.5c0-5.9,2.3-11.5,6.5-15.7c4.2-4.2,9.8-6.5,15.7-6.5c4.7,0,8.5-3.8,8.5-8.5s-3.8-8.5-8.5-8.5
	c-21.7,0-39.2,17.6-39.3,39.3c0,2.3,0.9,4.4,2.5,6C193.5,187.7,195.7,188.6,198,188.6z M264.5,21.3v-8.5c0-4.7-3.8-8.5-8.5-8.5
	c-4.7,0-8.5,3.8-8.5,8.5v8.5c0,4.7,3.8,8.5,8.5,8.5C260.7,29.9,264.5,26,264.5,21.3z M396,65.5l-8.5,8.5c-2.2,2.1-3.1,5.3-2.3,8.3
	c0.8,3,3.1,5.3,6.1,6.1c3,0.8,6.2-0.1,8.3-2.3l8.5-8.5c2.2-2.1,3.1-5.3,2.3-8.3c-0.8-3-3.1-5.3-6.1-6.1
	C401.3,62.4,398.2,63.3,396,65.5z M118.5,88.6c3.5,0,6.6-2.1,7.9-5.3c1.3-3.2,0.6-6.9-1.8-9.3l-8.5-8.5c-2.1-2.2-5.3-3.1-8.3-2.3
	c-3,0.8-5.3,3.1-6.1,6.1s0.1,6.2,2.3,8.3l8.5,8.5C114,87.7,116.2,88.6,118.5,88.6z M184.2,52.7c1.1,0,2.2-0.2,3.3-0.6
	c2.1-0.9,3.8-2.5,4.6-4.6s0.9-4.4,0-6.5l-9.8-23.7c-1.1-2.9-3.7-4.9-6.8-5.4c-3.1-0.4-6.1,0.8-8,3.3s-2.2,5.8-1,8.6l9.8,23.7
	C177.6,50.6,180.7,52.7,184.2,52.7L184.2,52.7z M340.9,12.6c-4.4-1.8-9.3,0.3-11.1,4.6L320,40.9c-0.9,2.1-0.9,4.4,0,6.5
	c0.9,2.1,2.5,3.8,4.6,4.6c1,0.4,2.1,0.6,3.3,0.6c3.5,0,6.6-2.1,7.9-5.3l9.8-23.7c0.9-2.1,0.9-4.4,0-6.5
	C344.7,15.2,343,13.5,340.9,12.6z M429.4,154.3c1.1,0,2.2-0.2,3.3-0.7l23.6-9.8c2.8-1.2,4.8-3.7,5.2-6.8c0.4-3-0.8-6-3.3-7.9
	s-5.6-2.3-8.5-1.1l-23.7,9.8c-3.8,1.6-5.9,5.6-5.1,9.6C421.8,151.4,425.4,154.3,429.4,154.3L429.4,154.3z M79.3,153.6
	c4.4,1.8,9.3-0.3,11.2-4.6c1.8-4.4-0.3-9.3-4.6-11.2l-23.7-9.8c-4.4-1.8-9.3,0.3-11.1,4.6c-1.8,4.4,0.3,9.3,4.6,11.1L79.3,153.6z"/>
</svg>
