<?xml version="1.0" encoding="utf-8"?>
<!-- Generator: Adobe Illustrator 24.1.0, SVG Export Plug-In . SVG Version: 6.00 Build 0)  -->
<svg version="1.1" id="Layer_1" xmlns="http://www.w3.org/2000/svg" xmlns:xlink="http://www.w3.org/1999/xlink" x="0px" y="0px"
	 viewBox="0 0 512 512" style="enable-background:new 0 0 512 512;" xml:space="preserve">
<path d="M432,138.2c-12.1,0-22,9.9-22,22v70h44v-70C454,148,444.1,138.2,432,138.2z M442,218.2h-20v-58c0-5.5,4.5-10,10-10
	s10,4.5,10,10V218.2z M275.2,210.2L256,181.4l-19.2,28.8h-40l20,30l-20,30h40L256,299l19.2-28.8h40l-20-30l20-30L275.2,210.2
	L275.2,210.2z M256,203l4.8,7.2h-9.6L256,203z M219.2,258.2l4.8-7.2l4.8,7.2H219.2z M224,229.4l-4.8-7.2h9.6L224,229.4z M256,277.4
	l-4.8-7.2h9.6L256,277.4z M268.8,258.2h-25.6l-12-18l12-18h25.6l12,18L268.8,258.2z M283.2,258.2l4.8-7.2l4.8,7.2H283.2z M288,229.4
	l-4.8-7.2h9.6L288,229.4z M486,450.2V126c9-1,16-8.6,16-17.9c0-9.3-7.1-17-16.3-17.9c-1.5-18.9-10.4-35.6-25.9-48.6
	c-12.7-10.6-25.4-15-25.9-15.2l-1.9-0.6l-1.9,0.7c-0.5,0.2-13.2,4.5-25.9,15.2c-15.5,13-24.4,29.7-25.9,48.6
	c-9.1,0.9-16.3,8.6-16.3,17.9c0,9.2,7,16.9,16,17.9v67.6l-122-122l-122,122V126c9-1,16-8.6,16-17.9c0-9.3-7.1-17-16.3-17.9
	c-1.5-18.9-10.4-35.6-25.9-48.6C95.1,31,82.5,26.7,81.9,26.5L80,25.8l-1.9,0.7c-0.5,0.2-13.2,4.5-25.9,15.2
	c-15.5,13-24.4,29.7-25.9,48.6C17.2,91.1,10,98.8,10,108.2c0,9.2,7,16.9,16,17.9v324.1H0v36h512v-36L486,450.2z M432,38.6
	c8,3.3,38.4,18.1,41.7,51.6h-83.4C393.6,56.4,423.8,41.9,432,38.6z M374,108.2c0-3.3,2.7-6,6-6h104c3.3,0,6,2.7,6,6s-2.7,6-6,6H380
	C376.7,114.2,374,111.5,374,108.2z M390,242.2v-116h84v116H390z M474,254.2v196h-84v-196H474z M256,88.7l122,122v15l-122-122
	l-122,122v-15L256,88.7z M342,362.2v-16h-44v104h-12v-104h-60v104h-12v-104h-44v16h-16v88h-20V242.7l122-122l122,122v207.5h-20v-88
	H342z M346,374.2v76h-36v-92h20v16H346z M274,358.2v92h-36v-92H274z M202,358.2v92h-36v-76h16v-16H202z M80,38.6
	c8,3.3,38.4,18.1,41.7,51.6H38.3C41.6,56.4,71.8,41.9,80,38.6z M22,108.2c0-3.3,2.7-6,6-6h104c3.3,0,6,2.7,6,6s-2.7,6-6,6H28
	C24.7,114.2,22,111.5,22,108.2z M38,242.2v-116h84v116H38z M122,254.2v196H38v-196H122z M500,474.2H12v-12h488V474.2z M80,138.2
	c-12.1,0-22,9.9-22,22v70h44v-70C102,148,92.1,138.2,80,138.2z M90,218.2H70v-58c0-5.5,4.5-10,10-10s10,4.5,10,10V218.2z M102,328.2
	c0-12.1-9.9-22-22-22s-22,9.9-22,22v70h44V328.2z M90,386.2H70v-58c0-5.5,4.5-10,10-10s10,4.5,10,10V386.2z M454,328.2
	c0-12.1-9.9-22-22-22s-22,9.9-22,22v70h44V328.2z M442,386.2h-20v-58c0-5.5,4.5-10,10-10s10,4.5,10,10V386.2z"/>
</svg>
