<?xml version="1.0" encoding="utf-8"?>
<!-- Generator: Adobe Illustrator 24.1.0, SVG Export Plug-In . SVG Version: 6.00 Build 0)  -->
<svg version="1.1" id="Capa_1" xmlns="http://www.w3.org/2000/svg" xmlns:xlink="http://www.w3.org/1999/xlink" x="0px" y="0px"
	 viewBox="0 0 408.1 408.1" style="enable-background:new 0 0 408.1 408.1;" xml:space="preserve">
<path d="M253.2,203.3l19.5-34.8c1-1.5,1-3.6,0-5.1s-2.6-2.6-4.6-2.6h-38.4l-16.9-30.2c-2-3.1-7.2-3.1-8.7,0l-16.9,30.2h-38.4
	c-2,0-3.6,1-4.6,2.6s-1,3.6,0,5.1l18.9,34.8l-19.5,34.3c-1,1.5-1,3.6,0,5.1s2.6,2.6,4.6,2.6h37.9l17.4,31.2c1,1.5,2.6,2.6,4.6,2.6
	s3.6-1,4.6-2.6l17.4-31.2H268c2,0,3.6-1,4.6-2.6s1-3.6,0-5.1L253.2,203.3z M259.3,171.5L247.6,193l-12.3-21.5H259.3z M208.1,143.9
	l9.7,17.4h-19.5L208.1,143.9z M156.9,171.5H181L168.7,193L156.9,171.5z M156.9,235l11.8-21.5l11.8,21.5H156.9z M208.1,263.7
	l-10.2-17.9h20L208.1,263.7z M224,235.5h-31.2l-17.4-31.7l17.4-32.3h30.7l17.9,32.3L224,235.5z M235.8,235l11.8-21.5l11.8,21.5
	H235.8z M401.2,90.6c3.1,0,5.1-2,5.1-5.1V52.2c0-3.1-2-5.1-5.1-5.1h-28.7V16.4c0-9.2-7.2-16.4-16.4-16.4s-16.4,7.2-16.4,16.4v30.7
	H311c-3.1,0-5.1,2-5.1,5.1v33.3c0,3.1,2,5.1,5.1,5.1h4.6v7.7H92.4v-7.7H97c3.1,0,5.1-2,5.1-5.1V52.2c0-3.1-2-5.1-5.1-5.1H68.4V16.4
	C68.4,7.2,61.2,0,52,0S35.6,7.2,35.6,16.4v30.7H6.9c-3.1,0-5.1,2-5.1,5.1v33.3c0,3.1,2,5.1,5.1,5.1h4.6v226.8H6.9
	c-3.1,0-5.1,2-5.1,5.1v33.3c0,3.1,2,5.1,5.1,5.1h28.7v30.7c0,9.2,7.2,16.4,16.4,16.4s16.4-7.2,16.4-16.4V361H97c3.1,0,5.1-2,5.1-5.1
	v-33.3c0-3.1-2-5.1-5.1-5.1h-4.6v-8.2h222.7v8.2h-4.6c-3.1,0-5.1,2-5.1,5.1v33.3c0,3.1,2,5.1,5.1,5.1h29.2v30.7
	c0,9.2,7.2,16.4,16.4,16.4s16.4-7.2,16.4-16.4V361h28.7c3.1,0,5.1-2,5.1-5.1v-33.3c0-3.1-2-5.1-5.1-5.1h-4.6V90.6H401.2z M45.3,16.4
	c0-3.6,2.6-6.1,6.1-6.1s6.1,2.6,6.1,6.1v30.7H45.3V16.4z M57.6,391.7c0,3.6-2.6,6.1-6.1,6.1s-6.1-2.6-6.1-6.1V361h12.3V391.7z
	 M91.9,350.2h-0.5H11.5v-23h80.4C91.9,327.2,91.9,350.2,91.9,350.2z M20.7,317.4v-0.5V90.6h61.4v226.8H20.7z M91.9,80.4h-0.5H11.5
	v-23h80.4C91.9,57.3,91.9,80.4,91.9,80.4z M350,16.4c0-3.6,2.6-6.1,6.1-6.1s6.1,2.6,6.1,6.1v30.7H350L350,16.4L350,16.4z M315.1,299
	H92.4V108.5h222.7V299z M362.2,391.7L362.2,391.7c0,3.6-2.6,6.1-6.1,6.1s-6.1-2.6-6.1-6.1V361h12.3L362.2,391.7L362.2,391.7z
	 M396,350.2h-80.4v-23H396V350.2z M325.4,317.4v-0.5V90.6h61.4v226.8H325.4z M396,80.4h-80.4v-23H396V80.4z"/>
</svg>
